HIERARCHY
ROOT Hips
{
  OFFSET 7.333 -26.027 -164.856
  CHANNELS 6 Xposition Yposition Zposition Zrotation Xrotation Yrotation
  JOINT LeftUpLeg
  {
    OFFSET 10.092 0.000 0.000
    CHANNELS 3 Zrotation Xrotation Yrotation
    JOINT LeftLeg
    {
      OFFSET 0.000 -38.160 -0.000
    CHANNELS 3 Zrotation Xrotation Yrotation
      JOINT LeftFoot
      {
        OFFSET -0.000 -24.040 0.000
    CHANNELS 3 Zrotation Xrotation Yrotation
        End Site
        {
          OFFSET -0.000 0.000 12.945
        }
      }
    }
  }
  JOINT RightUpLeg
  {
    OFFSET -10.092 -0.000 0.000
    CHANNELS 3 Zrotation Xrotation Yrotation
    JOINT RightLeg
    {
      OFFSET 0.000 -33.046 0.000
    CHANNELS 3 Zrotation Xrotation Yrotation
      JOINT RightFoot
      {
        OFFSET 0.000 -22.031 -0.000
    CHANNELS 3 Zrotation Xrotation Yrotation
        End Site
        {
          OFFSET 0.000 -0.000 11.863
        }
      }
    }
  }
  JOINT Spine
  {
    OFFSET -0.000 16.511 0.000
    CHANNELS 3 Zrotation Xrotation Yrotation
    JOINT LeftShoulder
    {
      OFFSET 0 16.511 0
    CHANNELS 3 Zrotation Xrotation Yrotation
      JOINT LeftArm
      {
        OFFSET 16.337 0.000 0.000
    CHANNELS 3 Zrotation Xrotation Yrotation
        JOINT LeftForeArm
        {
          OFFSET 0.000 -24.030 0.000
    CHANNELS 3 Zrotation Xrotation Yrotation
          JOINT LeftHand
          {
            OFFSET 0.000 -17.629 -0.000
    CHANNELS 3 Zrotation Xrotation Yrotation
            End Site
            {
              OFFSET 0.000 -11.753 -0.000
            }
          }
        }
      }
    }
    JOINT RightShoulder
    {
      OFFSET 0 16.511 0
    CHANNELS 3 Zrotation Xrotation Yrotation
      JOINT RightArm
      {
        OFFSET -16.337 0.000 0.000
    CHANNELS 3 Zrotation Xrotation Yrotation
        JOINT RightForeArm
        {
          OFFSET -0.000 -19.534 0.000
    CHANNELS 3 Zrotation Xrotation Yrotation
          JOINT RightHand
          {
            OFFSET 0.000 -19.514 -0.000
    CHANNELS 3 Zrotation Xrotation Yrotation
            End Site
            {
              OFFSET 0.000 -13.010 -0.000
            }
          }
        }
      }
    }
    JOINT Neck
    {
      OFFSET -0.000 16.511 0.000
    CHANNELS 3 Zrotation Xrotation Yrotation
      JOINT Head
      {
        OFFSET -0.000 12.493 -0.000
    CHANNELS 3 Zrotation Xrotation Yrotation
        End Site
        {
          OFFSET -0.000 8.328 -0.000
        }
      }
    }
  }
}
MOTION
Frames: 12
Frame Time: 0.0333333
0 0 0 -4.132970e-01 -1.034090e+01 2.751730e+00 6.681450e-01 2.769500e+01 -3.105340e-01 -2.819819e+00 -9.609020e+00 -4.629410e-01 0 2.271891e-08 0 1.843880e+00 3.270202e+01 -9.966430e-01 3.017147e+00 -2.469610e+01 1.910673e+00 0 0 0 NaN NaN 5.900000e-05 0 0 0 -1.361596e+01 -3.733981e+01 -1.136006e+02 1.055690e+02 -2.107540e+01 1.190973e+02 NaN 7.597898e-08 NaN 0 0 0 -5.430000e+00 -2.376860e+01 7.967166e+01 -1.271590e+02 -3.880130e+01 -1.523225e+02 -2.287413e-07 2.837006e-08 1.018437e-07 7.360342e-02 -1.751437e+00 NaN 0 -2.098296e-08 -6.737005e-08 
0 0 0 -3.721354e-02 -9.939668e+00 2.091360e+00 3.042848e-01 2.645870e+01 -1.354960e-01 -3.121035e+00 -8.476507e+00 -5.338700e-01 0 2.043671e-08 0 8.918151e-01 3.151630e+01 -4.725375e-01 3.816125e+00 -2.310803e+01 1.799750e+00 0 0 0 NaN 4.921358e-06 2.600000e-05 0 0 0 -7.870098e+00 -3.740346e+01 -1.035070e+02 1.094963e+02 -1.847497e+01 1.302910e+02 -1.618154e-07 -2.786447e-08 1.238541e-07 0 0 0 -4.118966e+00 -3.165310e+01 8.377117e+01 -1.222740e+02 -3.015418e+01 -1.475338e+02 NaN -4.599706e-08 2.411678e-07 1.484560e-01 -1.663556e+00 2.163465e-03 0 -1.581936e-08 4.251890e-08 
0 0 0 -3.157408e-01 -8.240390e+00 3.128141e+00 1.680939e+00 2.458030e+01 -7.000463e-01 -3.599959e+00 -8.677416e+00 -3.877598e-01 0 2.931062e-08 0 2.383034e+00 2.827961e+01 -1.129959e+00 3.081747e+00 -2.150830e+01 1.887830e+00 0 0 0 1.989714e-07 1.402208e-06 2.690373e-05 0 0 0 3.908390e+00 -4.084151e+01 -8.216791e+01 1.155243e+02 -2.398360e+01 1.313675e+02 NaN -8.458992e-08 1.123181e-07 0 0 0 -9.130996e+00 -3.504996e+01 7.657518e+01 -1.244077e+02 -2.337808e+01 -1.505945e+02 NaN 1.773408e-08 NaN 1.238811e-01 -4.098930e-01 -8.149012e-04 0 -1.348694e-08 9.973791e-08 
0 0 0 1.545792e-02 -8.532140e+00 2.397141e+00 5.828460e-01 2.362160e+01 -2.335450e-01 -3.031280e+00 -8.826098e+00 -4.171105e-01 0 2.723054e-08 0 1.663240e+00 2.895410e+01 -8.053570e-01 3.119866e+00 -2.294674e+01 1.788157e+00 0 0 0 -4.948310e-08 1.968722e-05 -6.594845e-05 0 0 0 1.742162e+01 -3.850395e+01 -5.892045e+01 1.167513e+02 -2.264170e+01 1.331687e+02 NaN -4.582037e-07 NaN 0 0 0 -2.122217e+01 -3.111596e+01 5.798877e+01 -1.261524e+02 -1.902879e+01 -1.552475e+02 -2.707135e-08 1.011828e-08 NaN 5.826319e-02 3.538580e-01 -5.725288e-04 0 -1.255387e-07 1.005545e-07 
0 0 0 -1.870156e-01 -8.361462e+00 6.284320e-01 1.134690e-01 2.289630e+01 -4.407538e-02 -2.972731e+00 -8.717221e+00 -4.081350e-01 0 2.214455e-08 0 1.236692e+00 2.806592e+01 -5.804423e-01 3.120882e+00 -2.239577e+01 1.601407e+00 0 0 0 5.892981e-07 NaN 3.000000e-06 0 0 0 3.025924e+01 -3.109560e+01 -3.478725e+01 1.162430e+02 -2.306481e+01 1.316804e+02 -4.478381e-08 NaN 1.272662e-07 0 0 0 -2.996161e+01 -2.549878e+01 4.361432e+01 -1.262968e+02 -1.253379e+01 -1.528250e+02 -6.893187e-08 1.591283e-08 -1.976418e-07 1.908491e-01 1.043949e+00 -2.012174e-04 0 NaN NaN 
0 0 0 -3.227260e-01 -7.720406e+00 -1.805999e-01 -2.702914e-01 2.236287e+01 1.031432e-01 -2.129533e+00 -8.823158e+00 -3.444993e-01 0 2.376870e-08 0 8.756080e-01 2.573853e+01 -3.802435e-01 3.757628e+00 -1.922532e+01 1.502097e+00 0 0 0 NaN NaN 1.195932e-05 0 0 0 3.733452e+01 -2.139599e+01 -1.784080e+01 1.131220e+02 -2.068370e+01 1.301347e+02 -2.650035e-08 NaN 1.339065e-07 0 0 0 -3.627163e+01 -1.639152e+01 2.938929e+01 -1.227266e+02 -5.874920e+00 -1.316390e+02 -5.155929e-08 -5.573658e-09 NaN 1.392289e-01 1.638998e+00 1.264360e-03 0 NaN 4.732165e-08 
0 0 0 -1.698230e-01 -7.558354e+00 -6.002935e-01 -6.398667e-01 2.226746e+01 2.417226e-01 -2.198790e+00 -8.860762e+00 -4.122524e-01 0 1.909308e-08 0 3.226591e-01 2.605400e+01 -1.413279e-01 4.116206e+00 -2.046570e+01 1.545260e+00 0 0 0 NaN -1.396117e-07 -8.000000e-05 0 0 0 4.094183e+01 -1.197737e+01 -5.423760e+00 1.074520e+02 -2.081840e+01 1.224035e+02 -8.061381e-09 3.555148e-08 NaN 0 0 0 -3.807680e+01 -7.883750e+00 1.919306e+01 -1.171498e+02 -1.156844e-02 -1.419060e+02 1.118511e-08 1.337416e-08 NaN 2.832252e-01 1.598652e+00 1.576670e-03 0 -2.041040e-08 3.216691e-08 
0 0 0 -9.519500e-02 -7.460259e+00 -6.504441e-01 -7.671720e-01 2.252193e+01 2.937571e-01 -1.907870e+00 -8.897255e+00 -4.299440e-01 0 NaN 0 -6.389100e-02 2.631809e+01 2.833200e-02 5.239280e+00 -2.131030e+01 1.887048e+00 0 0 0 -3.876412e-07 1.680603e-06 -8.093431e-05 0 0 0 4.277683e+01 -4.891950e+00 2.993925e+00 9.951275e+01 -2.163240e+01 1.083635e+02 -1.154781e-07 -1.980286e-08 NaN 0 0 0 -3.715114e+01 9.743200e-02 9.772420e+00 -1.111873e+02 -2.510488e-01 -9.702257e+01 -1.408403e-07 1.815402e-08 -1.096290e-07 5.169344e-01 1.708603e+00 7.967491e-04 0 -2.700815e-08 5.098492e-08 
0 0 0 1.660990e-01 -7.489235e+00 -3.839540e-02 -5.997872e-01 2.273129e+01 2.316883e-01 -2.718920e+00 -8.659470e+00 -4.078249e-01 0 2.904849e-08 0 -7.734469e-01 2.710983e+01 3.512601e-01 6.631591e+00 -2.223901e+01 2.251615e+00 0 0 0 NaN 8.269694e-06 -1.300000e-05 0 0 0 4.131520e+01 -1.774139e-01 8.207273e+00 9.289199e+01 -2.393523e+01 9.508411e+01 NaN 6.458341e-08 3.627741e-09 0 0 0 -3.722079e+01 7.502100e+00 -1.619738e-01 -1.056686e+02 -5.925758e+00 NaN NaN -1.463284e-10 1.470318e-07 NaN 1.946275e+00 6.576036e-04 0 -2.818751e-08 7.356987e-08 
0 0 0 2.076295e-01 -6.964713e+00 -5.878064e-01 -1.115759e+00 2.096623e+01 3.980260e-01 -2.465440e+00 -9.009960e+00 -2.200299e-01 0 3.201210e-08 0 -1.564355e+00 2.639286e+01 6.946817e-01 8.283210e+00 -2.309146e+01 2.709500e+00 0 0 0 NaN NaN -4.200000e-05 0 0 0 4.039634e+01 4.116256e+00 1.311855e+01 8.765380e+01 -2.616004e+01 8.554774e+01 -9.086137e-08 -4.252477e-08 8.241647e-09 0 0 0 -3.360646e+01 1.150289e+01 -6.881917e+00 -1.053517e+02 -1.148624e+01 -1.321114e+02 5.441679e-08 -1.094658e-08 NaN 2.531176e-01 2.059400e+00 4.583303e-04 0 -3.101480e-08 7.535566e-08 
0 0 0 -1.462583e-01 -7.170940e+00 -1.035365e-01 -4.273475e-02 2.110611e+01 1.593516e-02 -2.768220e+00 -9.725135e+00 -1.256043e-01 0 3.246035e-08 0 5.356620e-01 2.649014e+01 -2.389470e-01 4.313260e+00 -2.240319e+01 1.830190e+00 0 0 0 -6.253401e-07 NaN 3.102495e-05 0 0 0 3.970313e+01 5.947696e+00 1.533854e+01 8.471000e+01 -2.802092e+01 8.074740e+01 -5.417190e-08 -1.645414e-07 4.740868e-08 0 0 0 -3.187694e+01 1.390988e+01 -1.131703e+01 -1.047043e+02 -1.412335e+01 -1.349480e+02 -5.538942e-08 -2.900571e-07 NaN 1.093492e-01 2.067004e+00 8.703866e-04 0 -2.793151e-08 NaN 
0 0 0 -7.044553e-02 -6.644188e+00 9.430562e-02 1.665860e-01 1.935667e+01 -5.520000e-02 -3.294787e+00 -9.821473e+00 2.605736e-03 0 NaN 0 9.051310e-01 2.507236e+01 -3.835500e-01 2.967520e+00 -2.083734e+01 1.348940e+00 0 0 0 NaN 6.471252e-06 1.640463e-05 0 0 0 3.898176e+01 5.906407e+00 1.549637e+01 8.445430e+01 -2.827691e+01 8.041338e+01 NaN -1.959854e-07 1.207322e-07 0 0 0 -3.113482e+01 1.455977e+01 -1.275513e+01 -1.058613e+02 -1.670120e+01 -1.411051e+02 -1.028554e-07 NaN -7.336915e-08 1.224373e-01 1.980835e+00 7.915835e-04 0 -1.911340e-08 1.209467e-07 
